<?xml version="1.0" encoding="UTF-8" ?>
<svg version="1.1" width="300" height="193" xmlns="http://www.w3.org/2000/svg" shape-rendering="crispEdges">
<rect x="17" y="5" width="1" height="1" fill="#F6DAE4" opacity="0.678431" />
<rect x="110" y="5" width="1" height="1" fill="#6D85A5" />
<rect x="136" y="5" width="1" height="1" fill="#F6DAE4" opacity="0.027451" />
<rect x="5" y="6" width="1" height="1" fill="#F6DAE4" opacity="0.678431" />
<rect x="53" y="8" width="1" height="1" fill="#F6DAE4" opacity="0.176471" />
<rect x="98" y="9" width="1" height="1" fill="#FFFFFF" opacity="0.098039" />
<rect x="240" y="9" width="1" height="1" fill="#F6DAE4" opacity="0.019608" />
<rect x="248" y="13" width="1" height="1" fill="#FFFFFF" opacity="0.098039" />
<rect x="55" y="15" width="1" height="1" fill="#6D85A5" />
<rect x="175" y="16" width="1" height="1" fill="#F6DAE4" opacity="0.458824" />
<rect x="184" y="16" width="1" height="1" fill="#F6DAE4" opacity="0.458824" />
<rect x="48" y="18" width="1" height="1" fill="#F6DAE4" opacity="0.176471" />
<rect x="143" y="19" width="1" height="1" fill="#F6DAE4" opacity="0.027451" />
<rect x="255" y="20" width="1" height="1" fill="#FFFFFF" opacity="0.098039" />
<rect x="62" y="22" width="1" height="1" fill="#F6DAE4" opacity="0.176471" />
<rect x="235" y="22" width="1" height="1" fill="#F6DAE4" opacity="0.176471" />
<rect x="206" y="24" width="1" height="1" fill="#6D85A5" />
<rect x="252" y="24" width="1" height="1" fill="#F6DAE4" opacity="0.019608" />
<rect x="111" y="26" width="1" height="1" fill="#F6DAE4" opacity="0.019608" />
<rect x="109" y="27" width="1" height="1" fill="#000000" opacity="0.019608" />
<rect x="86" y="28" width="1" height="1" fill="#F6DAE4" opacity="0.458824" />
<rect x="204" y="29" width="1" height="1" fill="#F6DAE4" opacity="0.019608" />
<rect x="107" y="30" width="1" height="1" fill="#000000" opacity="0.019608" />
<rect x="262" y="30" width="1" height="1" fill="#F6DAE4" opacity="0.458824" />
<rect x="247" y="31" width="1" height="1" fill="#F6DAE4" opacity="0.458824" />
<rect x="96" y="32" width="1" height="1" fill="#FFFFFF" opacity="0.098039" />
<rect x="153" y="33" width="1" height="1" fill="#F6DAE4" opacity="0.019608" />
<rect x="123" y="34" width="1" height="1" fill="#F6DAE4" opacity="0.019608" />
<rect x="235" y="34" width="1" height="1" fill="#F6DAE4" opacity="0.176471" />
<rect x="221" y="35" width="1" height="1" fill="#6D85A5" />
<rect x="89" y="36" width="1" height="1" fill="#FFFFFF" opacity="0.098039" />
<rect x="98" y="37" width="1" height="1" fill="#F6DAE4" opacity="0.019608" />
<rect x="35" y="40" width="1" height="1" fill="#F6DAE4" opacity="0.458824" />
<rect x="139" y="40" width="1" height="1" fill="#F6DAE4" opacity="0.458824" />
<rect x="108" y="42" width="1" height="1" fill="#F6DAE4" opacity="0.458824" />
<rect x="173" y="42" width="1" height="1" fill="#F6DAE4" opacity="0.019608" />
<rect x="59" y="43" width="1" height="1" fill="#F6DAE4" opacity="0.458824" />
<rect x="50" y="46" width="1" height="1" fill="#000000" opacity="0.019608" />
<rect x="52" y="46" width="1" height="1" fill="#000000" opacity="0.019608" />
<rect x="178" y="46" width="1" height="1" fill="#6D85A5" />
<rect x="88" y="48" width="1" height="1" fill="#F6DAE4" opacity="0.458824" />
<rect x="203" y="49" width="1" height="1" fill="#F6DAE4" opacity="0.458824" />
<rect x="63" y="51" width="1" height="1" fill="#F6DAE4" opacity="0.458824" />
<rect x="240" y="51" width="1" height="1" fill="#F6DAE4" opacity="0.458824" />
<rect x="290" y="52" width="1" height="1" fill="#F6DAE4" opacity="0.019608" />
<rect x="209" y="53" width="1" height="1" fill="#F6DAE4" opacity="0.019608" />
<rect x="213" y="53" width="1" height="1" fill="#F6DAE4" opacity="0.019608" />
<rect x="272" y="53" width="1" height="1" fill="#F6DAE4" opacity="0.019608" />
<rect x="274" y="56" width="1" height="1" fill="#F6DAE4" opacity="0.019608" />
<rect x="11" y="57" width="1" height="1" fill="#F6DAE4" opacity="0.176471" />
<rect x="290" y="57" width="1" height="1" fill="#6D85A5" />
<rect x="274" y="58" width="1" height="1" fill="#6D85A5" />
<rect x="48" y="59" width="1" height="1" fill="#F6DAE4" opacity="0.019608" />
<rect x="55" y="61" width="1" height="1" fill="#000000" opacity="0.019608" />
<rect x="130" y="62" width="1" height="1" fill="#F6DAE4" opacity="0.458824" />
<rect x="47" y="66" width="1" height="1" fill="#000000" opacity="0.019608" />
<rect x="246" y="66" width="1" height="1" fill="#F6DAE4" opacity="0.458824" />
<rect x="31" y="67" width="1" height="1" fill="#000000" opacity="0.019608" />
<rect x="291" y="68" width="1" height="1" fill="#6D85A5" />
<rect x="205" y="69" width="1" height="1" fill="#F6DAE4" opacity="0.458824" />
<rect x="77" y="72" width="1" height="1" fill="#F6DAE4" opacity="0.019608" />
<rect x="43" y="74" width="1" height="1" fill="#000000" opacity="0.019608" />
<rect x="253" y="74" width="1" height="1" fill="#F6DAE4" opacity="0.458824" />
<rect x="50" y="76" width="1" height="1" fill="#F6DAE4" opacity="0.458824" />
<rect x="243" y="76" width="1" height="1" fill="#F6DAE4" opacity="0.458824" />
<rect x="10" y="77" width="1" height="1" fill="#F6DAE4" opacity="0.458824" />
<rect x="30" y="77" width="1" height="1" fill="#000000" opacity="0.019608" />
<rect x="33" y="77" width="1" height="1" fill="#000000" opacity="0.019608" />
<rect x="57" y="78" width="1" height="1" fill="#000000" opacity="0.019608" />
<rect x="18" y="82" width="1" height="1" fill="#000000" opacity="0.019608" />
<rect x="199" y="82" width="1" height="1" fill="#F6DAE4" opacity="0.019608" />
<rect x="4" y="83" width="1" height="1" fill="#F6DAE4" opacity="0.176471" />
<rect x="48" y="85" width="1" height="1" fill="#F6DAE4" opacity="0.019608" />
<rect x="145" y="86" width="1" height="1" fill="#FFFFFF" opacity="0.098039" />
<rect x="103" y="95" width="1" height="1" fill="#F6DAE4" opacity="0.019608" />
<rect x="202" y="97" width="1" height="1" fill="#F6DAE4" opacity="0.019608" />
<rect x="183" y="99" width="1" height="1" fill="#F6DAE4" opacity="0.019608" />
<rect x="46" y="100" width="1" height="1" fill="#000000" opacity="0.019608" />
<rect x="59" y="100" width="1" height="1" fill="#000000" opacity="0.019608" />
<rect x="161" y="100" width="1" height="1" fill="#F6DAE4" opacity="0.019608" />
<rect x="39" y="102" width="1" height="1" fill="#000000" opacity="0.019608" />
<rect x="174" y="102" width="1" height="1" fill="#FFFFFF" opacity="0.098039" />
<rect x="46" y="103" width="1" height="1" fill="#F6DAE4" opacity="0.458824" />
<rect x="49" y="103" width="1" height="1" fill="#F6DAE4" opacity="0.019608" />
<rect x="178" y="105" width="1" height="1" fill="#F6DAE4" opacity="0.019608" />
<rect x="179" y="106" width="1" height="1" fill="#F6DAE4" opacity="0.019608" />
<rect x="105" y="107" width="1" height="1" fill="#F6DAE4" opacity="0.019608" />
<rect x="159" y="107" width="1" height="1" fill="#FFFFFF" opacity="0.098039" />
<rect x="66" y="108" width="1" height="1" fill="#F6DAE4" opacity="0.019608" />
<rect x="103" y="110" width="1" height="1" fill="#F6DAE4" opacity="0.019608" />
<rect x="182" y="111" width="1" height="1" fill="#F6DAE4" opacity="0.019608" />
<rect x="273" y="115" width="1" height="1" fill="#F6DAE4" opacity="0.458824" />
<rect x="116" y="116" width="1" height="1" fill="#F6DAE4" opacity="0.458824" />
<rect x="52" y="118" width="1" height="1" fill="#F6DAE4" opacity="0.019608" />
<rect x="63" y="119" width="1" height="1" fill="#F6DAE4" opacity="0.458824" />
<rect x="186" y="119" width="1" height="1" fill="#FFFFFF" opacity="0.098039" />
<rect x="212" y="121" width="1" height="1" fill="#FFFFFF" opacity="0.098039" />
<rect x="174" y="122" width="1" height="1" fill="#F6DAE4" opacity="0.019608" />
<rect x="85" y="123" width="1" height="1" fill="#F6DAE4" opacity="0.176471" />
<rect x="105" y="123" width="1" height="1" fill="#F6DAE4" opacity="0.019608" />
<rect x="8" y="125" width="1" height="1" fill="#6D85A5" />
<rect x="42" y="125" width="1" height="1" fill="#F6DAE4" opacity="0.458824" />
<rect x="247" y="125" width="1" height="1" fill="#F6DAE4" opacity="0.176471" />
<rect x="251" y="126" width="1" height="1" fill="#F6DAE4" opacity="0.458824" />
<rect x="289" y="127" width="1" height="1" fill="#F6DAE4" opacity="0.458824" />
<rect x="75" y="128" width="1" height="1" fill="#F6DAE4" opacity="0.176471" />
<rect x="170" y="128" width="1" height="1" fill="#F6DAE4" opacity="0.019608" />
<rect x="226" y="129" width="1" height="1" fill="#F6DAE4" opacity="0.176471" />
<rect x="243" y="129" width="1" height="1" fill="#F6DAE4" opacity="0.458824" />
<rect x="49" y="130" width="1" height="1" fill="#6D85A5" />
<rect x="159" y="130" width="1" height="1" fill="#F6DAE4" opacity="0.458824" />
<rect x="116" y="132" width="1" height="1" fill="#F6DAE4" opacity="0.458824" />
<rect x="264" y="135" width="1" height="1" fill="#F6DAE4" opacity="0.176471" />
<rect x="216" y="136" width="1" height="1" fill="#6D85A5" />
<rect x="84" y="140" width="1" height="1" fill="#F6DAE4" opacity="0.176471" />
<rect x="86" y="140" width="1" height="1" fill="#F6DAE4" opacity="0.019608" />
<rect x="188" y="146" width="1" height="1" fill="#6D85A5" />
<rect x="51" y="147" width="1" height="1" fill="#6D85A5" />
<rect x="218" y="150" width="1" height="1" fill="#F6DAE4" opacity="0.458824" />
<rect x="75" y="152" width="1" height="1" fill="#F6DAE4" opacity="0.458824" />
<rect x="215" y="154" width="1" height="1" fill="#F6DAE4" opacity="0.458824" />
<rect x="290" y="154" width="1" height="1" fill="#F6DAE4" opacity="0.458824" />
<rect x="213" y="155" width="1" height="1" fill="#F6DAE4" opacity="0.458824" />
<rect x="153" y="160" width="1" height="1" fill="#F6DAE4" opacity="0.458824" />
<rect x="208" y="163" width="1" height="1" fill="#F6DAE4" opacity="0.458824" />
<rect x="236" y="167" width="1" height="1" fill="#6D85A5" />
<rect x="1" y="170" width="1" height="1" fill="#F6DAE4" opacity="0.458824" />
<rect x="135" y="174" width="1" height="1" fill="#6D85A5" />
<rect x="261" y="177" width="1" height="1" fill="#F6DAE4" opacity="0.458824" />
<rect x="85" y="178" width="1" height="1" fill="#F6DAE4" opacity="0.458824" />
<rect x="200" y="182" width="1" height="1" fill="#6D85A5" />
<rect x="111" y="190" width="1" height="1" fill="#6D85A5" />
<rect x="209" y="192" width="1" height="1" fill="#6D85A5" />
</svg>